<mxfile host="app.diagrams.net" modified="2023-04-10T13:31:44.532Z" agent="Mozilla/5.0 (Windows NT 10.0; Win64; x64) AppleWebKit/537.36 (KHTML, like Gecko) Chrome/111.0.0.0 Safari/537.36" etag="iZqINXsRCF_FOS4MyBwz" version="21.1.1" type="device">
  <diagram name="Page-1" id="e1OJEfIdMXNyWtMZwztH">
    <mxGraphModel dx="1050" dy="483" grid="1" gridSize="10" guides="1" tooltips="1" connect="1" arrows="1" fold="1" page="1" pageScale="1" pageWidth="827" pageHeight="1169" math="0" shadow="0">
      <root>
        <mxCell id="0" />
        <mxCell id="1" parent="0" />
        <mxCell id="qAqxc3iNbVJxK92Ongxz-26" value="" style="line;strokeWidth=2;html=1;dashed=1;" parent="1" vertex="1">
          <mxGeometry x="220" y="270" width="850" height="34.38" as="geometry" />
        </mxCell>
        <mxCell id="qAqxc3iNbVJxK92Ongxz-46" value="" style="line;strokeWidth=2;html=1;perimeter=backbonePerimeter;points=[];outlineConnect=0;dashed=1;" parent="1" vertex="1">
          <mxGeometry x="230" y="515" width="830" height="10" as="geometry" />
        </mxCell>
        <mxCell id="qAqxc3iNbVJxK92Ongxz-40" value="alt" style="shape=umlFrame;whiteSpace=wrap;html=1;pointerEvents=0;" parent="1" vertex="1">
          <mxGeometry x="230" y="440" width="830" height="240" as="geometry" />
        </mxCell>
        <mxCell id="qAqxc3iNbVJxK92Ongxz-66" value="loop" style="shape=umlFrame;whiteSpace=wrap;html=1;pointerEvents=0;" parent="1" vertex="1">
          <mxGeometry x="230" y="770" width="830" height="60" as="geometry" />
        </mxCell>
        <mxCell id="qAqxc3iNbVJxK92Ongxz-18" value="alt" style="shape=umlFrame;whiteSpace=wrap;html=1;pointerEvents=0;" parent="1" vertex="1">
          <mxGeometry x="219" y="117" width="850" height="730" as="geometry" />
        </mxCell>
        <mxCell id="P9X6cf1XV2n2BRrHxzTW-1" value="getAccounts(currencyString: String, accounts: AccountList)" style="html=1;align=left;spacingLeft=2;endArrow=block;rounded=0;edgeStyle=orthogonalEdgeStyle;curved=0;rounded=0;" parent="qAqxc3iNbVJxK92Ongxz-18" edge="1" target="qAqxc3iNbVJxK92Ongxz-35">
          <mxGeometry relative="1" as="geometry">
            <mxPoint x="146.5" y="294.02777777777777" as="sourcePoint" />
            <Array as="points">
              <mxPoint x="179" y="294" />
              <mxPoint x="179" y="314" />
            </Array>
            <mxPoint as="offset" />
            <mxPoint x="153.5" y="314.30555555555554" as="targetPoint" />
          </mxGeometry>
        </mxCell>
        <mxCell id="qAqxc3iNbVJxK92Ongxz-4" value="" style="shape=umlLifeline;perimeter=lifelinePerimeter;whiteSpace=wrap;html=1;container=1;dropTarget=0;collapsible=0;recursiveResize=0;outlineConnect=0;portConstraint=eastwest;newEdgeStyle={&quot;edgeStyle&quot;:&quot;elbowEdgeStyle&quot;,&quot;elbow&quot;:&quot;vertical&quot;,&quot;curved&quot;:0,&quot;rounded&quot;:0};participant=umlEntity;" parent="1" vertex="1">
          <mxGeometry x="339" y="20" width="40" height="860" as="geometry" />
        </mxCell>
        <mxCell id="qAqxc3iNbVJxK92Ongxz-9" value="" style="html=1;points=[];perimeter=orthogonalPerimeter;outlineConnect=0;targetShapes=umlLifeline;portConstraint=eastwest;newEdgeStyle={&quot;edgeStyle&quot;:&quot;elbowEdgeStyle&quot;,&quot;elbow&quot;:&quot;vertical&quot;,&quot;curved&quot;:0,&quot;rounded&quot;:0};" parent="qAqxc3iNbVJxK92Ongxz-4" vertex="1">
          <mxGeometry x="12.5" y="50" width="15" height="790" as="geometry" />
        </mxCell>
        <mxCell id="qAqxc3iNbVJxK92Ongxz-35" value="" style="html=1;points=[];perimeter=orthogonalPerimeter;outlineConnect=0;targetShapes=umlLifeline;portConstraint=eastwest;newEdgeStyle={&quot;edgeStyle&quot;:&quot;elbowEdgeStyle&quot;,&quot;elbow&quot;:&quot;vertical&quot;,&quot;curved&quot;:0,&quot;rounded&quot;:0};" parent="qAqxc3iNbVJxK92Ongxz-4" vertex="1">
          <mxGeometry x="19" y="410" width="11" height="260" as="geometry" />
        </mxCell>
        <mxCell id="qAqxc3iNbVJxK92Ongxz-61" value="" style="html=1;points=[];perimeter=orthogonalPerimeter;outlineConnect=0;targetShapes=umlLifeline;portConstraint=eastwest;newEdgeStyle={&quot;edgeStyle&quot;:&quot;elbowEdgeStyle&quot;,&quot;elbow&quot;:&quot;vertical&quot;,&quot;curved&quot;:0,&quot;rounded&quot;:0};" parent="qAqxc3iNbVJxK92Ongxz-4" vertex="1">
          <mxGeometry x="23" y="710" width="10" height="110" as="geometry" />
        </mxCell>
        <mxCell id="qAqxc3iNbVJxK92Ongxz-2" value=":BalanceCommand" style="html=1;whiteSpace=wrap;" parent="1" vertex="1">
          <mxGeometry x="304" y="10" width="110" height="50" as="geometry" />
        </mxCell>
        <mxCell id="qAqxc3iNbVJxK92Ongxz-6" value="execute(ui :Ui, accounts :AccountList)" style="html=1;verticalAlign=bottom;startArrow=oval;startFill=1;endArrow=block;startSize=8;edgeStyle=elbowEdgeStyle;elbow=vertical;curved=0;rounded=0;" parent="1" edge="1">
          <mxGeometry width="60" relative="1" as="geometry">
            <mxPoint x="40" y="70" as="sourcePoint" />
            <mxPoint x="359" y="71" as="targetPoint" />
          </mxGeometry>
        </mxCell>
        <mxCell id="qAqxc3iNbVJxK92Ongxz-8" value="" style="shape=umlLifeline;perimeter=lifelinePerimeter;whiteSpace=wrap;html=1;container=1;dropTarget=0;collapsible=0;recursiveResize=0;outlineConnect=0;portConstraint=eastwest;newEdgeStyle={&quot;edgeStyle&quot;:&quot;elbowEdgeStyle&quot;,&quot;elbow&quot;:&quot;vertical&quot;,&quot;curved&quot;:0,&quot;rounded&quot;:0};participant=umlBoundary;" parent="1" vertex="1">
          <mxGeometry x="680" y="20" width="50" height="860" as="geometry" />
        </mxCell>
        <mxCell id="qAqxc3iNbVJxK92Ongxz-7" value=":Ui" style="html=1;whiteSpace=wrap;" parent="1" vertex="1">
          <mxGeometry x="650" y="10" width="110" height="50" as="geometry" />
        </mxCell>
        <UserObject label="[Exception]" placeholders="1" name="Variable" id="qAqxc3iNbVJxK92Ongxz-20">
          <mxCell style="text;html=1;strokeColor=none;fillColor=none;align=center;verticalAlign=middle;whiteSpace=wrap;overflow=hidden;" parent="1" vertex="1">
            <mxGeometry x="224" y="160" width="80" height="20" as="geometry" />
          </mxCell>
        </UserObject>
        <mxCell id="qAqxc3iNbVJxK92Ongxz-21" value="printMessage(message:String)" style="html=1;verticalAlign=bottom;startArrow=none;startFill=0;endArrow=block;startSize=8;edgeStyle=elbowEdgeStyle;elbow=vertical;curved=0;rounded=0;" parent="1" target="qAqxc3iNbVJxK92Ongxz-22" edge="1">
          <mxGeometry width="60" relative="1" as="geometry">
            <mxPoint x="370" y="180" as="sourcePoint" />
            <mxPoint x="510" y="180" as="targetPoint" />
          </mxGeometry>
        </mxCell>
        <mxCell id="qAqxc3iNbVJxK92Ongxz-22" value="" style="html=1;points=[];perimeter=orthogonalPerimeter;outlineConnect=0;targetShapes=umlLifeline;portConstraint=eastwest;newEdgeStyle={&quot;edgeStyle&quot;:&quot;elbowEdgeStyle&quot;,&quot;elbow&quot;:&quot;vertical&quot;,&quot;curved&quot;:0,&quot;rounded&quot;:0};" parent="1" vertex="1">
          <mxGeometry x="700" y="180" width="10" height="80" as="geometry" />
        </mxCell>
        <mxCell id="qAqxc3iNbVJxK92Ongxz-25" value="" style="html=1;verticalAlign=bottom;endArrow=open;dashed=1;endSize=8;edgeStyle=elbowEdgeStyle;elbow=vertical;curved=0;rounded=0;" parent="1" source="qAqxc3iNbVJxK92Ongxz-22" edge="1">
          <mxGeometry relative="1" as="geometry">
            <mxPoint x="450" y="260" as="sourcePoint" />
            <mxPoint x="370" y="260" as="targetPoint" />
          </mxGeometry>
        </mxCell>
        <mxCell id="qAqxc3iNbVJxK92Ongxz-31" value="" style="html=1;points=[];perimeter=orthogonalPerimeter;outlineConnect=0;targetShapes=umlLifeline;portConstraint=eastwest;newEdgeStyle={&quot;edgeStyle&quot;:&quot;elbowEdgeStyle&quot;,&quot;elbow&quot;:&quot;vertical&quot;,&quot;curved&quot;:0,&quot;rounded&quot;:0};" parent="1" vertex="1">
          <mxGeometry x="362" y="340" width="10" height="40" as="geometry" />
        </mxCell>
        <mxCell id="qAqxc3iNbVJxK92Ongxz-32" value="processCommand()" style="html=1;align=left;spacingLeft=2;endArrow=block;rounded=0;edgeStyle=orthogonalEdgeStyle;curved=0;rounded=0;" parent="1" target="qAqxc3iNbVJxK92Ongxz-31" edge="1">
          <mxGeometry relative="1" as="geometry">
            <mxPoint x="367" y="320" as="sourcePoint" />
            <Array as="points">
              <mxPoint x="397" y="320" />
              <mxPoint x="397" y="340" />
            </Array>
            <mxPoint as="offset" />
          </mxGeometry>
        </mxCell>
        <mxCell id="qAqxc3iNbVJxK92Ongxz-33" value="" style="html=1;align=left;spacingLeft=2;endArrow=open;rounded=0;edgeStyle=orthogonalEdgeStyle;curved=0;rounded=0;dashed=1;endFill=0;" parent="1" target="qAqxc3iNbVJxK92Ongxz-9" edge="1">
          <mxGeometry relative="1" as="geometry">
            <mxPoint x="372" y="380" as="sourcePoint" />
            <Array as="points">
              <mxPoint x="402" y="380" />
              <mxPoint x="402" y="400" />
            </Array>
            <mxPoint x="377" y="400" as="targetPoint" />
            <mxPoint as="offset" />
          </mxGeometry>
        </mxCell>
        <mxCell id="qAqxc3iNbVJxK92Ongxz-34" value=":String" style="edgeLabel;html=1;align=center;verticalAlign=middle;resizable=0;points=[];" parent="qAqxc3iNbVJxK92Ongxz-33" vertex="1" connectable="0">
          <mxGeometry x="-0.0824" y="-1" relative="1" as="geometry">
            <mxPoint x="19" as="offset" />
          </mxGeometry>
        </mxCell>
        <mxCell id="qAqxc3iNbVJxK92Ongxz-38" value="" style="shape=umlLifeline;perimeter=lifelinePerimeter;whiteSpace=wrap;html=1;container=1;dropTarget=0;collapsible=0;recursiveResize=0;outlineConnect=0;portConstraint=eastwest;newEdgeStyle={&quot;edgeStyle&quot;:&quot;elbowEdgeStyle&quot;,&quot;elbow&quot;:&quot;vertical&quot;,&quot;curved&quot;:0,&quot;rounded&quot;:0};participant=umlEntity;" parent="1" vertex="1">
          <mxGeometry x="825" y="20" width="40" height="860" as="geometry" />
        </mxCell>
        <mxCell id="qAqxc3iNbVJxK92Ongxz-76" value="" style="html=1;points=[];perimeter=orthogonalPerimeter;outlineConnect=0;targetShapes=umlLifeline;portConstraint=eastwest;newEdgeStyle={&quot;edgeStyle&quot;:&quot;elbowEdgeStyle&quot;,&quot;elbow&quot;:&quot;vertical&quot;,&quot;curved&quot;:0,&quot;rounded&quot;:0};" parent="qAqxc3iNbVJxK92Ongxz-38" vertex="1">
          <mxGeometry x="15" y="552" width="10" height="25" as="geometry" />
        </mxCell>
        <mxCell id="qAqxc3iNbVJxK92Ongxz-77" value=":Account" style="html=1;verticalAlign=bottom;endArrow=open;dashed=1;endSize=8;edgeStyle=elbowEdgeStyle;elbow=vertical;curved=0;rounded=0;" parent="qAqxc3iNbVJxK92Ongxz-38" source="qAqxc3iNbVJxK92Ongxz-76" edge="1">
          <mxGeometry relative="1" as="geometry">
            <mxPoint x="-376" y="576.72" as="sourcePoint" />
            <mxPoint x="-456" y="576.72" as="targetPoint" />
          </mxGeometry>
        </mxCell>
        <mxCell id="qAqxc3iNbVJxK92Ongxz-75" value="getAccount(currency:Currency)" style="html=1;verticalAlign=bottom;endArrow=block;edgeStyle=elbowEdgeStyle;elbow=vertical;curved=0;rounded=0;" parent="qAqxc3iNbVJxK92Ongxz-38" target="qAqxc3iNbVJxK92Ongxz-76" edge="1">
          <mxGeometry width="80" relative="1" as="geometry">
            <mxPoint x="-456" y="552.23" as="sourcePoint" />
            <mxPoint x="-376" y="552.23" as="targetPoint" />
          </mxGeometry>
        </mxCell>
        <mxCell id="qAqxc3iNbVJxK92Ongxz-37" value=":AccountList" style="html=1;whiteSpace=wrap;" parent="1" vertex="1">
          <mxGeometry x="790" y="10" width="110" height="50" as="geometry" />
        </mxCell>
        <mxCell id="qAqxc3iNbVJxK92Ongxz-41" value="&lt;font style=&quot;font-size: 8px;&quot;&gt;[currencyString.equals(&quot;ALL&quot;)]&lt;/font&gt;" style="text;align=center;fontStyle=1;verticalAlign=middle;spacingLeft=3;spacingRight=3;strokeColor=none;rotatable=0;points=[[0,0.5],[1,0.5]];portConstraint=eastwest;html=1;" parent="1" vertex="1">
          <mxGeometry x="250" y="480" width="80" height="26" as="geometry" />
        </mxCell>
        <mxCell id="qAqxc3iNbVJxK92Ongxz-42" value="" style="html=1;points=[];perimeter=orthogonalPerimeter;outlineConnect=0;targetShapes=umlLifeline;portConstraint=eastwest;newEdgeStyle={&quot;edgeStyle&quot;:&quot;elbowEdgeStyle&quot;,&quot;elbow&quot;:&quot;vertical&quot;,&quot;curved&quot;:0,&quot;rounded&quot;:0};" parent="1" vertex="1">
          <mxGeometry x="840" y="470" width="10" height="30" as="geometry" />
        </mxCell>
        <mxCell id="qAqxc3iNbVJxK92Ongxz-43" value="getAllAccounts()" style="html=1;verticalAlign=bottom;startArrow=none;startFill=0;endArrow=open;startSize=6;endSize=8;edgeStyle=elbowEdgeStyle;elbow=vertical;curved=0;rounded=0;" parent="1" target="qAqxc3iNbVJxK92Ongxz-38" edge="1">
          <mxGeometry x="-0.0097" y="-20" width="80" relative="1" as="geometry">
            <mxPoint x="370" y="470" as="sourcePoint" />
            <mxPoint x="442" y="470" as="targetPoint" />
            <mxPoint as="offset" />
          </mxGeometry>
        </mxCell>
        <mxCell id="qAqxc3iNbVJxK92Ongxz-44" value=":ArrayList&amp;lt;Account&amp;gt;" style="html=1;verticalAlign=bottom;endArrow=open;dashed=1;endSize=8;edgeStyle=elbowEdgeStyle;elbow=vertical;curved=0;rounded=0;" parent="1" source="qAqxc3iNbVJxK92Ongxz-42" edge="1">
          <mxGeometry x="0.0435" y="20" relative="1" as="geometry">
            <mxPoint x="452" y="530" as="sourcePoint" />
            <mxPoint x="370" y="500" as="targetPoint" />
            <Array as="points">
              <mxPoint x="830" y="500" />
            </Array>
            <mxPoint as="offset" />
          </mxGeometry>
        </mxCell>
        <mxCell id="qAqxc3iNbVJxK92Ongxz-48" value="&lt;span style=&quot;font-size: 8px;&quot;&gt;[else]&lt;/span&gt;" style="text;align=center;fontStyle=1;verticalAlign=middle;spacingLeft=3;spacingRight=3;strokeColor=none;rotatable=0;points=[[0,0.5],[1,0.5]];portConstraint=eastwest;html=1;" parent="1" vertex="1">
          <mxGeometry x="240" y="525" width="80" height="26" as="geometry" />
        </mxCell>
        <mxCell id="qAqxc3iNbVJxK92Ongxz-58" value="" style="html=1;align=left;spacingLeft=2;endArrow=classic;rounded=0;edgeStyle=orthogonalEdgeStyle;curved=0;rounded=0;dashed=1;endFill=1;" parent="1" target="qAqxc3iNbVJxK92Ongxz-9" edge="1">
          <mxGeometry relative="1" as="geometry">
            <mxPoint x="370" y="690" as="sourcePoint" />
            <Array as="points">
              <mxPoint x="409" y="690" />
              <mxPoint x="409" y="710" />
            </Array>
            <mxPoint x="372" y="710" as="targetPoint" />
            <mxPoint as="offset" />
          </mxGeometry>
        </mxCell>
        <mxCell id="qAqxc3iNbVJxK92Ongxz-59" value="accounts:ArrayList&amp;lt;Account&amp;gt;" style="edgeLabel;html=1;align=center;verticalAlign=middle;resizable=0;points=[];" parent="qAqxc3iNbVJxK92Ongxz-58" vertex="1" connectable="0">
          <mxGeometry x="-0.0824" y="-1" relative="1" as="geometry">
            <mxPoint x="72" as="offset" />
          </mxGeometry>
        </mxCell>
        <mxCell id="qAqxc3iNbVJxK92Ongxz-60" value="[No Exception]" style="text;align=center;fontStyle=1;verticalAlign=middle;spacingLeft=3;spacingRight=3;strokeColor=none;rotatable=0;points=[[0,0.5],[1,0.5]];portConstraint=eastwest;html=1;" parent="1" vertex="1">
          <mxGeometry x="230" y="300" width="80" height="26" as="geometry" />
        </mxCell>
        <mxCell id="qAqxc3iNbVJxK92Ongxz-62" value="printCurrencies(:ArrayList&amp;lt;Account&amp;gt;, :Ui)" style="html=1;align=left;spacingLeft=2;endArrow=block;rounded=0;edgeStyle=orthogonalEdgeStyle;curved=0;rounded=0;" parent="1" target="qAqxc3iNbVJxK92Ongxz-61" edge="1">
          <mxGeometry relative="1" as="geometry">
            <mxPoint x="366" y="720" as="sourcePoint" />
            <Array as="points">
              <mxPoint x="396" y="720" />
              <mxPoint x="396" y="730" />
              <mxPoint x="367" y="730" />
            </Array>
          </mxGeometry>
        </mxCell>
        <mxCell id="qAqxc3iNbVJxK92Ongxz-63" value="printMessage(:String)" style="html=1;verticalAlign=bottom;endArrow=block;edgeStyle=elbowEdgeStyle;elbow=vertical;curved=0;rounded=0;" parent="1" target="qAqxc3iNbVJxK92Ongxz-64" edge="1">
          <mxGeometry width="80" relative="1" as="geometry">
            <mxPoint x="372" y="760" as="sourcePoint" />
            <mxPoint x="452" y="760" as="targetPoint" />
            <Array as="points">
              <mxPoint x="660" y="750" />
            </Array>
          </mxGeometry>
        </mxCell>
        <mxCell id="qAqxc3iNbVJxK92Ongxz-64" value="" style="html=1;points=[];perimeter=orthogonalPerimeter;outlineConnect=0;targetShapes=umlLifeline;portConstraint=eastwest;newEdgeStyle={&quot;edgeStyle&quot;:&quot;elbowEdgeStyle&quot;,&quot;elbow&quot;:&quot;vertical&quot;,&quot;curved&quot;:0,&quot;rounded&quot;:0};" parent="1" vertex="1">
          <mxGeometry x="700" y="750" width="10" height="10" as="geometry" />
        </mxCell>
        <mxCell id="qAqxc3iNbVJxK92Ongxz-65" value="" style="html=1;verticalAlign=bottom;endArrow=open;dashed=1;endSize=8;edgeStyle=elbowEdgeStyle;elbow=vertical;curved=0;rounded=0;" parent="1" target="qAqxc3iNbVJxK92Ongxz-61" edge="1">
          <mxGeometry x="-0.085" y="-10" relative="1" as="geometry">
            <mxPoint x="700" y="760" as="sourcePoint" />
            <mxPoint x="620" y="780.06" as="targetPoint" />
            <Array as="points">
              <mxPoint x="690" y="760" />
            </Array>
            <mxPoint as="offset" />
          </mxGeometry>
        </mxCell>
        <mxCell id="qAqxc3iNbVJxK92Ongxz-67" value="" style="html=1;points=[];perimeter=orthogonalPerimeter;outlineConnect=0;targetShapes=umlLifeline;portConstraint=eastwest;newEdgeStyle={&quot;edgeStyle&quot;:&quot;elbowEdgeStyle&quot;,&quot;elbow&quot;:&quot;vertical&quot;,&quot;curved&quot;:0,&quot;rounded&quot;:0};" parent="1" vertex="1">
          <mxGeometry x="700" y="790" width="10" height="30" as="geometry" />
        </mxCell>
        <mxCell id="qAqxc3iNbVJxK92Ongxz-68" value="printMessage(:String)" style="html=1;verticalAlign=bottom;endArrow=block;edgeStyle=elbowEdgeStyle;elbow=vertical;curved=0;rounded=0;" parent="1" edge="1">
          <mxGeometry width="80" relative="1" as="geometry">
            <mxPoint x="372" y="800" as="sourcePoint" />
            <mxPoint x="700" y="790" as="targetPoint" />
            <Array as="points">
              <mxPoint x="660" y="790" />
            </Array>
          </mxGeometry>
        </mxCell>
        <mxCell id="qAqxc3iNbVJxK92Ongxz-69" value="" style="html=1;verticalAlign=bottom;endArrow=open;dashed=1;endSize=8;edgeStyle=elbowEdgeStyle;elbow=vertical;curved=0;rounded=0;" parent="1" edge="1">
          <mxGeometry x="-0.085" y="-10" relative="1" as="geometry">
            <mxPoint x="700" y="819" as="sourcePoint" />
            <mxPoint x="372" y="819" as="targetPoint" />
            <Array as="points">
              <mxPoint x="690" y="819" />
            </Array>
            <mxPoint as="offset" />
          </mxGeometry>
        </mxCell>
        <mxCell id="qAqxc3iNbVJxK92Ongxz-74" value="&lt;font style=&quot;font-size: 8px;&quot;&gt;[all currencies in accounts]&lt;/font&gt;" style="text;align=center;fontStyle=1;verticalAlign=middle;spacingLeft=3;spacingRight=3;strokeColor=none;rotatable=0;points=[[0,0.5],[1,0.5]];portConstraint=eastwest;html=1;" parent="1" vertex="1">
          <mxGeometry x="250" y="794" width="80" height="26" as="geometry" />
        </mxCell>
        <mxCell id="qAqxc3iNbVJxK92Ongxz-79" value="toString()" style="html=1;verticalAlign=bottom;endArrow=block;edgeStyle=elbowEdgeStyle;elbow=vertical;curved=0;rounded=0;" parent="1" edge="1">
          <mxGeometry x="-0.2886" width="80" relative="1" as="geometry">
            <mxPoint x="710" y="799.89" as="sourcePoint" />
            <mxPoint x="1000" y="795.0000000000001" as="targetPoint" />
            <Array as="points">
              <mxPoint x="810" y="795" />
            </Array>
            <mxPoint as="offset" />
          </mxGeometry>
        </mxCell>
        <mxCell id="qAqxc3iNbVJxK92Ongxz-81" value="" style="html=1;verticalAlign=bottom;endArrow=open;dashed=1;endSize=8;edgeStyle=elbowEdgeStyle;elbow=vertical;curved=0;rounded=0;" parent="1" edge="1">
          <mxGeometry x="-0.003" relative="1" as="geometry">
            <mxPoint x="350" y="860.06" as="sourcePoint" />
            <mxPoint x="40" y="860" as="targetPoint" />
            <mxPoint as="offset" />
          </mxGeometry>
        </mxCell>
        <mxCell id="qAqxc3iNbVJxK92Ongxz-85" value="" style="shape=umlLifeline;perimeter=lifelinePerimeter;whiteSpace=wrap;html=1;container=1;dropTarget=0;collapsible=0;recursiveResize=0;outlineConnect=0;portConstraint=eastwest;newEdgeStyle={&quot;edgeStyle&quot;:&quot;elbowEdgeStyle&quot;,&quot;elbow&quot;:&quot;vertical&quot;,&quot;curved&quot;:0,&quot;rounded&quot;:0};participant=umlEntity;" parent="1" vertex="1">
          <mxGeometry x="985" y="20" width="40" height="860" as="geometry" />
        </mxCell>
        <mxCell id="qAqxc3iNbVJxK92Ongxz-78" value="" style="html=1;points=[];perimeter=orthogonalPerimeter;outlineConnect=0;targetShapes=umlLifeline;portConstraint=eastwest;newEdgeStyle={&quot;edgeStyle&quot;:&quot;elbowEdgeStyle&quot;,&quot;elbow&quot;:&quot;vertical&quot;,&quot;curved&quot;:0,&quot;rounded&quot;:0};" parent="qAqxc3iNbVJxK92Ongxz-85" vertex="1">
          <mxGeometry x="15" y="773" width="10" height="17" as="geometry" />
        </mxCell>
        <mxCell id="qAqxc3iNbVJxK92Ongxz-84" value=":Account" style="html=1;whiteSpace=wrap;" parent="1" vertex="1">
          <mxGeometry x="950" y="10" width="110" height="50" as="geometry" />
        </mxCell>
        <mxCell id="qAqxc3iNbVJxK92Ongxz-88" value=":String" style="html=1;verticalAlign=bottom;endArrow=open;dashed=1;endSize=8;edgeStyle=elbowEdgeStyle;elbow=vertical;curved=0;rounded=0;" parent="1" edge="1">
          <mxGeometry x="-0.2406" y="3" relative="1" as="geometry">
            <mxPoint x="1000" y="809.79" as="sourcePoint" />
            <mxPoint x="710" y="809.7222222222222" as="targetPoint" />
            <mxPoint as="offset" />
          </mxGeometry>
        </mxCell>
      </root>
    </mxGraphModel>
  </diagram>
</mxfile>
